{
	"nodes":[{
		"name":"basement:ceiling_lightbulb",
		"translation":[-7.3031721115112309,
		9.615363121032715,
		1.6004825830459595],
		"rotation":[0.0,
		0.0,
		0.0,
		-1.0],
		"scale":[1.0,
		1.0,
		1.0],
		"mesh":0
	}],
	"asset":{
		"version":"2.0",
		"generator":"Created using the official Cinema 4D glTF Exporter 1.000x284978"
	},
	"scenes":[{
		"nodes":[0]
	}],
	"materials":[{
		"pbrMetallicRoughness":{
			"baseColorFactor":[0.8,
			0.8,
			0.8,
			1.0],
			"metallicFactor":1.0,
			"roughnessFactor":0.3
		},
		"emissiveFactor":[1.0,
		1.0,
		1.0],
		"alphaMode":"OPAQUE",
		"doubleSided":false,
		"name":"PBR.4"
	}],
	"meshes":[{
		"name":"basement:ceiling_lightbulb",
		"primitives":[{
			"attributes":{
				"POSITION":1
			},
			"indices":0,
			"material":0
		}]
	}],
	"accessors":[{
		"bufferView":0,
		"type":"SCALAR",
		"componentType":5123,
		"count":6732,
		"byteOffset":0,
		"min":[0],
		"max":[1139]
	},
	{
		"bufferView":1,
		"type":"VEC3",
		"componentType":5126,
		"count":1140,
		"byteOffset":0,
		"min":[-7.584649085998535,
		6.561408519744873,
		-0.9402599334716797],
		"max":[0.5343299508094788,
		7.253267765045166,
		9.790191650390625]
	}],
	"bufferViews":[{
		"buffer":0,
		"target":34963,
		"byteOffset":0,
		"byteLength":13464
	},
	{
		"buffer":0,
		"target":34962,
		"byteOffset":13464,
		"byteLength":13680
	}],
	"buffers":[{
		"uri":"data:application/octet-stream;base64,",
		"byteLength":27144
	}]
}