{
	"nodes":[{
		"name":"couch",
		"translation":[-9.149420738220215,
		4.855171203613281,
		7.562652587890625],
		"rotation":[0.7071067690849304,
		-4.329780301713277e-17,
		-0.7071067690849304,
		4.329780301713277e-17],
		"scale":[0.014000000432133675,
		-0.014320430345833302,
		0.014320430345833302],
		"children":[1,
		3,
		4,
		5,
		6,
		8,
		10,
		12]
	},
	{
		"name":"Subdivision Surface",
		"children":[2]
	},
	{
		"name":"basement:basement:basement:f1",
		"translation":[-1.1254996934439987e-11,
		0.5589526891708374,
		0.5759507417678833],
		"rotation":[0.0,
		0.0,
		7.450580596923828e-9,
		-1.0],
		"scale":[0.05584697425365448,
		0.05584697425365448,
		0.05584697425365448],
		"mesh":0
	},
	{
		"name":"basement:basement:basement:f2",
		"translation":[-1.1709744285326451e-11,
		-4.9012955017279858e-14,
		4.527969665879539e-11],
		"rotation":[0.0,
		0.0,
		7.450580596923828e-9,
		-1.0],
		"scale":[0.05584697425365448,
		0.05584697425365448,
		0.05584697425365448],
		"mesh":1
	},
	{
		"name":"basement:basement:basement:f5",
		"translation":[-1.1709744285326451e-11,
		-4.9012955017279858e-14,
		4.527969665879539e-11],
		"rotation":[0.0,
		0.0,
		7.450580596923828e-9,
		-1.0],
		"scale":[0.05584697425365448,
		0.05584697425365448,
		0.05584697425365448],
		"mesh":2
	},
	{
		"name":"basement:basement:basement:f7",
		"translation":[-1.1709744285326451e-11,
		-4.9012955017279858e-14,
		4.527969665879539e-11],
		"rotation":[0.0,
		0.0,
		7.450580596923828e-9,
		-1.0],
		"scale":[0.05584697425365448,
		0.05584697425365448,
		0.05584697425365448],
		"mesh":3
	},
	{
		"name":"Subdivision Surface",
		"children":[7]
	},
	{
		"name":"basement:basement:basement:f8",
		"translation":[-313.60321044921877,
		0.5589516758918762,
		0.5759375095367432],
		"rotation":[0.0,
		0.0,
		0.0,
		-1.0],
		"scale":[0.0560000017285347,
		0.05584697425365448,
		0.05584697425365448],
		"mesh":4
	},
	{
		"name":"Subdivision Surface",
		"children":[9]
	},
	{
		"name":"basement:basement:basement:f6",
		"translation":[313.60321044921877,
		0.5589516758918762,
		0.5759375095367432],
		"rotation":[0.0,
		0.0,
		1.0,
		-6.123234262925839e-17],
		"scale":[0.0560000017285347,
		-0.05584697425365448,
		0.05584697425365448],
		"mesh":5
	},
	{
		"name":"basement:basement:basement:group6",
		"translation":[-2.2737367544323208e-13,
		-4.9012955017279858e-14,
		3.233694304623398e-14],
		"rotation":[-3.7493993930529858e-33,
		-6.123234262925839e-17,
		1.0,
		-6.123234262925839e-17],
		"scale":[1.0,
		-1.0,
		1.0],
		"children":[11]
	},
	{
		"name":"basement:basement:basement:f4",
		"translation":[-163.4477996826172,
		0.5589526891708374,
		-149.27745056152345],
		"rotation":[0.7071067690849304,
		5.26835597369768e-9,
		0.7071067690849304,
		5.26835597369768e-9],
		"scale":[0.05584697425365448,
		-0.05584697425365448,
		0.05584697425365448],
		"mesh":6
	},
	{
		"name":"basement:basement:basement:group7",
		"translation":[-3.410605131648481e-13,
		6.467388609246797e-14,
		-298.491943359375],
		"rotation":[1.0,
		-6.123234262925839e-17,
		6.123234262925839e-17,
		-6.123234262925839e-17],
		"scale":[1.0,
		-1.0,
		1.0],
		"children":[13]
	},
	{
		"name":"basement:basement:basement:f4",
		"translation":[-163.4477996826172,
		0.5589526891708374,
		-149.27745056152345],
		"rotation":[0.7071067690849304,
		5.26835597369768e-9,
		0.7071067690849304,
		5.26835597369768e-9],
		"scale":[0.05584697425365448,
		-0.05584697425365448,
		0.05584697425365448],
		"mesh":7
	}],
	"asset":{
		"version":"2.0",
		"generator":"Created using the official Cinema 4D glTF Exporter 1.000x284978"
	},
	"scenes":[{
		"nodes":[0]
	}],
	"materials":[{
		"pbrMetallicRoughness":{
			"baseColorTexture":{
				"index":0
			},
			"baseColorFactor":[0.8,
			0.8,
			0.8,
			1.0],
			"metallicFactor":1.0,
			"roughnessFactor":1.0
		},
		"normalTexture":{
			"index":1,
			"scale":1.0
		},
		"occlusionTexture":{
			"index":2,
			"strength":1.0
		},
		"emissiveFactor":[0.0,
		0.0,
		0.0],
		"alphaMode":"OPAQUE",
		"doubleSided":false,
		"name":"PBR.2"
	}],
	"meshes":[{
		"name":"basement:basement:basement:f1",
		"primitives":[{
			"attributes":{
				"POSITION":1,
				"NORMAL":2,
				"TEXCOORD_0":3
			},
			"indices":0,
			"material":0
		}]
	},
	{
		"name":"basement:basement:basement:f2",
		"primitives":[{
			"attributes":{
				"POSITION":5,
				"NORMAL":6,
				"TEXCOORD_0":7
			},
			"indices":4,
			"material":0
		}]
	},
	{
		"name":"basement:basement:basement:f5",
		"primitives":[{
			"attributes":{
				"POSITION":9,
				"NORMAL":10,
				"TEXCOORD_0":11
			},
			"indices":8,
			"material":0
		}]
	},
	{
		"name":"basement:basement:basement:f7",
		"primitives":[{
			"attributes":{
				"POSITION":13,
				"NORMAL":14,
				"TEXCOORD_0":15
			},
			"indices":12,
			"material":0
		}]
	},
	{
		"name":"basement:basement:basement:f8",
		"primitives":[{
			"attributes":{
				"POSITION":17,
				"NORMAL":18,
				"TEXCOORD_0":19
			},
			"indices":16,
			"material":0
		}]
	},
	{
		"name":"basement:basement:basement:f6",
		"primitives":[{
			"attributes":{
				"POSITION":21,
				"NORMAL":22,
				"TEXCOORD_0":23
			},
			"indices":20,
			"material":0
		}]
	},
	{
		"name":"basement:basement:basement:f4",
		"primitives":[{
			"attributes":{
				"POSITION":25,
				"NORMAL":26
			},
			"indices":24,
			"material":0
		}]
	},
	{
		"name":"basement:basement:basement:f4",
		"primitives":[{
			"attributes":{
				"POSITION":28,
				"NORMAL":29,
				"TEXCOORD_0":30
			},
			"indices":27,
			"material":0
		}]
	}],
	"accessors":[{
		"bufferView":0,
		"type":"SCALAR",
		"componentType":5123,
		"count":8838,
		"byteOffset":0,
		"min":[0],
		"max":[2195]
	},
	{
		"bufferView":1,
		"type":"VEC3",
		"componentType":5126,
		"count":2196,
		"byteOffset":0,
		"min":[-2787.289306640625,
		298.81768798828127,
		-5769.2734375],
		"max":[2800.69921875,
		2327.927978515625,
		-3921.7255859375]
	},
	{
		"bufferView":1,
		"type":"VEC3",
		"componentType":5126,
		"count":2196,
		"byteOffset":12,
		"min":[-0.9999648332595825,
		-0.9946447610855103,
		-1.0],
		"max":[0.9997085332870483,
		0.9999061822891235,
		0.9994359016418457]
	},
	{
		"bufferView":1,
		"type":"VEC2",
		"componentType":5126,
		"count":2196,
		"byteOffset":24,
		"min":[-1.1920928955078126e-7,
		-1.1920928955078126e-7],
		"max":[1.0000001192092896,
		1.0]
	},
	{
		"bufferView":2,
		"type":"SCALAR",
		"componentType":5123,
		"count":9792,
		"byteOffset":0,
		"min":[0],
		"max":[6671]
	},
	{
		"bufferView":3,
		"type":"VEC3",
		"componentType":5126,
		"count":6672,
		"byteOffset":0,
		"min":[-8064.83447265625,
		-2339.954345703125,
		-5210.0927734375],
		"max":[8140.33203125,
		-2184.732421875,
		5469.173828125]
	},
	{
		"bufferView":3,
		"type":"VEC3",
		"componentType":5126,
		"count":6672,
		"byteOffset":12,
		"min":[-1.0,
		-1.0,
		-1.0],
		"max":[1.0,
		0.9828219413757324,
		1.0]
	},
	{
		"bufferView":3,
		"type":"VEC2",
		"componentType":5126,
		"count":6672,
		"byteOffset":24,
		"min":[0.0,
		-2.384185791015625e-7],
		"max":[1.0,
		1.0]
	},
	{
		"bufferView":4,
		"type":"SCALAR",
		"componentType":5123,
		"count":1956,
		"byteOffset":0,
		"min":[0],
		"max":[866]
	},
	{
		"bufferView":5,
		"type":"VEC3",
		"componentType":5126,
		"count":867,
		"byteOffset":0,
		"min":[-8436.0478515625,
		-2184.732421875,
		-5519.2177734375],
		"max":[-2787.289306640625,
		2161.48095703125,
		129.54074096679688]
	},
	{
		"bufferView":5,
		"type":"VEC3",
		"componentType":5126,
		"count":867,
		"byteOffset":12,
		"min":[-0.9999772906303406,
		-0.997178852558136,
		-0.9999772906303406],
		"max":[1.0,
		1.0,
		1.0]
	},
	{
		"bufferView":5,
		"type":"VEC2",
		"componentType":5126,
		"count":867,
		"byteOffset":24,
		"min":[-1.1920928955078126e-7,
		-4.76837158203125e-7],
		"max":[1.0000001192092896,
		1.0]
	},
	{
		"bufferView":6,
		"type":"SCALAR",
		"componentType":5123,
		"count":5310,
		"byteOffset":0,
		"min":[0],
		"max":[2264]
	},
	{
		"bufferView":7,
		"type":"VEC3",
		"componentType":5126,
		"count":2265,
		"byteOffset":0,
		"min":[-2787.289306640625,
		-2184.732421875,
		-5519.2177734375],
		"max":[8450.0498046875,
		2161.48095703125,
		5778.89111328125]
	},
	{
		"bufferView":7,
		"type":"VEC3",
		"componentType":5126,
		"count":2265,
		"byteOffset":12,
		"min":[-1.0,
		-0.9971787929534912,
		-0.9999772906303406],
		"max":[0.999977171421051,
		1.0,
		1.0]
	},
	{
		"bufferView":7,
		"type":"VEC2",
		"componentType":5126,
		"count":2265,
		"byteOffset":24,
		"min":[-9.5367431640625e-7,
		-4.76837158203125e-7],
		"max":[1.0000009536743165,
		1.0]
	},
	{
		"bufferView":8,
		"type":"SCALAR",
		"componentType":5123,
		"count":49992,
		"byteOffset":0,
		"min":[0],
		"max":[16910]
	},
	{
		"bufferView":9,
		"type":"VEC3",
		"componentType":5126,
		"count":16911,
		"byteOffset":0,
		"min":[-2787.2900390625,
		298.6625061035156,
		-5769.18408203125],
		"max":[2801.91943359375,
		2327.750732421875,
		-4036.83984375]
	},
	{
		"bufferView":9,
		"type":"VEC3",
		"componentType":5126,
		"count":16911,
		"byteOffset":12,
		"min":[-1.0,
		-1.0,
		-1.0],
		"max":[1.0,
		0.9999999403953552,
		1.0]
	},
	{
		"bufferView":9,
		"type":"VEC2",
		"componentType":5126,
		"count":16911,
		"byteOffset":24,
		"min":[0.0,
		1.0],
		"max":[0.0,
		1.0]
	},
	{
		"bufferView":10,
		"type":"SCALAR",
		"componentType":5123,
		"count":49992,
		"byteOffset":0,
		"min":[0],
		"max":[17093]
	},
	{
		"bufferView":11,
		"type":"VEC3",
		"componentType":5126,
		"count":17094,
		"byteOffset":0,
		"min":[-2787.2900390625,
		294.9575500488281,
		-5769.18408203125],
		"max":[2801.91943359375,
		2327.64306640625,
		-4036.83984375]
	},
	{
		"bufferView":11,
		"type":"VEC3",
		"componentType":5126,
		"count":17094,
		"byteOffset":12,
		"min":[-1.0,
		-1.0,
		-1.0],
		"max":[1.0,
		0.9999983310699463,
		1.0]
	},
	{
		"bufferView":11,
		"type":"VEC2",
		"componentType":5126,
		"count":17094,
		"byteOffset":24,
		"min":[0.0,
		1.0],
		"max":[0.0,
		1.0]
	},
	{
		"bufferView":12,
		"type":"SCALAR",
		"componentType":5123,
		"count":4212,
		"byteOffset":0,
		"min":[0],
		"max":[703]
	},
	{
		"bufferView":13,
		"type":"VEC3",
		"componentType":5126,
		"count":704,
		"byteOffset":0,
		"min":[-2848.661376953125,
		298.8175048828125,
		-5771.6328125],
		"max":[2800.7001953125,
		2323.917724609375,
		-3936.247802734375]
	},
	{
		"bufferView":13,
		"type":"VEC3",
		"componentType":5126,
		"count":704,
		"byteOffset":12,
		"min":[-0.9999763369560242,
		-1.0,
		-1.0],
		"max":[1.0,
		0.9995231628417969,
		1.0]
	},
	{
		"bufferView":14,
		"type":"SCALAR",
		"componentType":5123,
		"count":4212,
		"byteOffset":0,
		"min":[0],
		"max":[703]
	},
	{
		"bufferView":15,
		"type":"VEC3",
		"componentType":5126,
		"count":704,
		"byteOffset":0,
		"min":[-2787.288818359375,
		298.8175048828125,
		-5769.06884765625],
		"max":[2824.349609375,
		2385.849365234375,
		-3991.304443359375]
	},
	{
		"bufferView":15,
		"type":"VEC3",
		"componentType":5126,
		"count":704,
		"byteOffset":12,
		"min":[-1.0,
		-1.0,
		-1.0],
		"max":[1.0,
		0.9994091987609863,
		1.0]
	},
	{
		"bufferView":15,
		"type":"VEC2",
		"componentType":5126,
		"count":704,
		"byteOffset":24,
		"min":[0.0,
		1.0],
		"max":[0.0,
		1.0]
	}],
	"bufferViews":[{
		"buffer":0,
		"target":34963,
		"byteOffset":0,
		"byteLength":17676
	},
	{
		"buffer":0,
		"target":34962,
		"byteOffset":17676,
		"byteLength":70272,
		"byteStride":32
	},
	{
		"buffer":1,
		"target":34963,
		"byteOffset":0,
		"byteLength":19584
	},
	{
		"buffer":1,
		"target":34962,
		"byteOffset":19584,
		"byteLength":213504,
		"byteStride":32
	},
	{
		"buffer":2,
		"target":34963,
		"byteOffset":0,
		"byteLength":3912
	},
	{
		"buffer":2,
		"target":34962,
		"byteOffset":3912,
		"byteLength":27744,
		"byteStride":32
	},
	{
		"buffer":3,
		"target":34963,
		"byteOffset":0,
		"byteLength":10620
	},
	{
		"buffer":3,
		"target":34962,
		"byteOffset":10620,
		"byteLength":72480,
		"byteStride":32
	},
	{
		"buffer":4,
		"target":34963,
		"byteOffset":0,
		"byteLength":99984
	},
	{
		"buffer":4,
		"target":34962,
		"byteOffset":99984,
		"byteLength":541152,
		"byteStride":32
	},
	{
		"buffer":5,
		"target":34963,
		"byteOffset":0,
		"byteLength":99984
	},
	{
		"buffer":5,
		"target":34962,
		"byteOffset":99984,
		"byteLength":547008,
		"byteStride":32
	},
	{
		"buffer":6,
		"target":34963,
		"byteOffset":0,
		"byteLength":8424
	},
	{
		"buffer":6,
		"target":34962,
		"byteOffset":8424,
		"byteLength":16896,
		"byteStride":24
	},
	{
		"buffer":7,
		"target":34963,
		"byteOffset":0,
		"byteLength":8424
	},
	{
		"buffer":7,
		"target":34962,
		"byteOffset":8424,
		"byteLength":22528,
		"byteStride":32
	}],
	"buffers":[{
		"uri":"data:application/octet-stream;base64,",
		"byteLength":87948
	},
	{
		"uri":"data:application/octet-stream;base64,",
		"byteLength":233088
	},
	{
		"uri":"data:application/octet-stream;base64,",
		"byteLength":31656
	},
	{
		"uri":"data:application/octet-stream;base64,",
		"byteLength":83100
	},
	{
		"uri":"data:application/octet-stream;base64,",
		"byteLength":641136
	},
	{
		"uri":"data:application/octet-stream;base64,",
		"byteLength":646992
	},
	{
		"uri":"data:application/octet-stream;base64,",
		"byteLength":25320
	},
	{
		"uri":"data:application/octet-stream;base64,",
		"byteLength":30952
	}],
	"images":[{
		"uri":"data:image/jpeg;base64,"
	},
	{
		"uri":"data:image/jpeg;base64,"
	},
	{
		"uri":"data:image/jpeg;base64,"
	}],
	"samplers":[{
		"magFilter":9729,
		"minFilter":9729,
		"wrapS":10497,
		"wrapT":10497
	},
	{
		"magFilter":9729,
		"minFilter":9729,
		"wrapS":10497,
		"wrapT":10497
	},
	{
		"magFilter":9729,
		"minFilter":9729,
		"wrapS":10497,
		"wrapT":10497
	}],
	"textures":[{
		"sampler":0,
		"source":0
	},
	{
		"sampler":1,
		"source":1
	},
	{
		"sampler":2,
		"source":2
	}]
}