{
	"nodes":[{
		"name":"basement:basement:basement:basement_raw",
		"translation":[-0.030042793601751329,
		2.662722110748291,
		-7.391889572143555],
		"rotation":[0.0,
		0.0,
		0.0,
		-1.0],
		"scale":[0.10000000149011612,
		0.10000000149011612,
		0.10000000149011612],
		"mesh":0
	}],
	"asset":{
		"version":"2.0",
		"generator":"Created using the official Cinema 4D glTF Exporter 1.000x284978"
	},
	"scenes":[{
		"nodes":[0]
	}],
	"materials":[{
		"pbrMetallicRoughness":{
			"baseColorFactor":[1.0,
			1.0,
			1.0,
			1.0],
			"metallicFactor":1.0,
			"roughnessFactor":0.3
		},
		"emissiveFactor":[0.0,
		0.0,
		0.0],
		"alphaMode":"OPAQUE",
		"doubleSided":false,
		"name":"walls"
	}],
	"meshes":[{
		"name":"basement:basement:basement:basement_raw",
		"primitives":[{
			"attributes":{
				"POSITION":1,
				"NORMAL":2,
				"TEXCOORD_0":3
			},
			"indices":0,
			"material":0
		}]
	}],
	"accessors":[{
		"bufferView":0,
		"type":"SCALAR",
		"componentType":5123,
		"count":2268,
		"byteOffset":0,
		"min":[0],
		"max":[947]
	},
	{
		"bufferView":1,
		"type":"VEC3",
		"componentType":5126,
		"count":948,
		"byteOffset":0,
		"min":[-310.54510498046877,
		-36.07170867919922,
		-107.87115478515625],
		"max":[310.522216796875,
		143.4630126953125,
		269.0458679199219]
	},
	{
		"bufferView":1,
		"type":"VEC3",
		"componentType":5126,
		"count":948,
		"byteOffset":12,
		"min":[-1.0,
		-1.0,
		-1.0],
		"max":[1.0,
		1.0,
		1.0]
	},
	{
		"bufferView":1,
		"type":"VEC2",
		"componentType":5126,
		"count":948,
		"byteOffset":24,
		"min":[0.125,
		-0.005712628364562988],
		"max":[0.875,
		1.0]
	}],
	"bufferViews":[{
		"buffer":0,
		"target":34963,
		"byteOffset":0,
		"byteLength":4536
	},
	{
		"buffer":0,
		"target":34962,
		"byteOffset":4536,
		"byteLength":30336,
		"byteStride":32
	}],
	"buffers":[{
		"uri":"data:application/octet-stream;base64,",
		"byteLength":34872
	}]
}